<?xml version="1.0" encoding="UTF-8" standalone="no"?>
<!-- Created with Inkscape (http://www.inkscape.org/) -->

<svg
   width="250mm"
   height="150mm"
   viewBox="0 0 250 150"
   version="1.1"
   id="svg57"
   inkscape:version="1.1.2 (b8e25be833, 2022-02-05)"
   sodipodi:docname="powerObtain-mainLogo.svg"
   xmlns:inkscape="http://www.inkscape.org/namespaces/inkscape"
   xmlns:sodipodi="http://sodipodi.sourceforge.net/DTD/sodipodi-0.dtd"
   xmlns="http://www.w3.org/2000/svg"
   xmlns:svg="http://www.w3.org/2000/svg">
  <sodipodi:namedview
     id="namedview59"
     pagecolor="#ffffff"
     bordercolor="#999999"
     borderopacity="1"
     inkscape:pageshadow="0"
     inkscape:pageopacity="0"
     inkscape:pagecheckerboard="0"
     inkscape:document-units="mm"
     showgrid="false"
     width="250mm"
     inkscape:zoom="0.64052329"
     inkscape:cx="671.3261"
     inkscape:cy="394.98954"
     inkscape:window-width="1920"
     inkscape:window-height="986"
     inkscape:window-x="-11"
     inkscape:window-y="-11"
     inkscape:window-maximized="1"
     inkscape:current-layer="layer1" />
  <defs
     id="defs54" />
  <g
     inkscape:label="Layer 1"
     inkscape:groupmode="layer"
     id="layer1">
    <g
       id="g2513"
       transform="translate(-115.34783,379.76685)">
      <g
         id="g1500"
         transform="matrix(0.78368897,0,-0.45881005,1,-102.61437,0)"
         style="fill:#f2f2f2;stroke:none">
        <path
           id="rect31"
           style="stroke-width:4.16364;stroke-linecap:round;stroke-linejoin:round;stroke-miterlimit:0;stroke-opacity:0"
           d="m 196.49496,-355.37204 h 30 v 108.47053 h -30 z" />
        <path
           id="rect1096"
           style="stroke-width:11.7397;stroke-linecap:round;stroke-linejoin:round;stroke-miterlimit:0;stroke-opacity:0"
           d="m 231.75253,-355.66418 h 75.25757 v 40 h -75.25757 z" />
        <path
           id="rect1200"
           style="stroke-width:6.60748;stroke-linecap:round;stroke-linejoin:round;stroke-miterlimit:0;stroke-opacity:0"
           d="m 231.75253,-311.57492 h 20 v 64.67339 h -20 z" />
        <path
           id="rect1304"
           style="stroke-width:11.7997;stroke-linecap:round;stroke-linejoin:round;stroke-miterlimit:0;stroke-opacity:0"
           d="m 257.01013,-311.2829 h 50 v 30 h -50 z" />
        <path
           id="rect1408"
           style="stroke-width:6.27332;stroke-linecap:round;stroke-linejoin:round;stroke-miterlimit:0;stroke-opacity:0"
           d="m 266.97556,-276.90152 h 40 v 30 h -40 z" />
      </g>
      <path
         id="path2079-9-2"
         style="fill:#ff0000;stroke-width:5.29167;stroke-linecap:round;stroke-linejoin:round;stroke-miterlimit:0;stroke-opacity:0"
         d="m 249.31793,-261.80389 a 7.3021808,7.3021808 0 0 1 -7.30218,7.30218 7.3021808,7.3021808 0 0 1 -7.30218,-7.30218 7.3021808,7.3021808 0 0 1 7.30218,-7.30218 7.3021808,7.3021808 0 0 1 7.30218,7.30218 z" />
    </g>
    <g
       id="g32382"
       style="fill:#ffcc00;stroke:#ffcc00;stroke-width:8.90568;stroke-miterlimit:4;stroke-dasharray:none"
       transform="matrix(0.30428596,0,0,0.21919939,-131.14435,106.84351)">
      <path
         style="fill:#ffcc00;stroke:#ffcc00;stroke-width:8.90568;stroke-linecap:butt;stroke-linejoin:miter;stroke-miterlimit:4;stroke-dasharray:none;stroke-opacity:1"
         d="m 605.50556,-264.05111 c 0,-2.48903 -7.23701,-5.06641 -17.49514,-5.06641 -63.11655,0 -132.02262,104.91626 -130.53129,178.654379 0.65788,32.528715 15.2999,76.418635 60.72185,76.418635 49.16179,0 123.93678,-55.914071 123.93678,-181.958974 0,-20.48619 -6.8268,-57.41724 -27.89716,-57.41724 -20.44637,0 -56.59109,36.3164 -56.59109,61.75452 0,13.55113 14.88838,14.42214 14.88838,14.42214 0,-7.07063 23.79415,-66.97843 42.27221,-66.97843 12.03086,0 13.88807,29.2453 13.88807,32.93529 0,115.236272 -55.6779,186.296241 -99.18778,186.296241 -47.18039,0 -43.06599,-63.409334 -43.06599,-63.409334 0,-92.649037 75.49728,-176.109037 112.20364,-175.722947 z"
         id="path48"
         sodipodi:nodetypes="cssssssccssssc" />
      <path
         id="path15058"
         style="fill:#ffcc00;stroke:#ffcc00;stroke-width:33.6593;stroke-linecap:butt;stroke-linejoin:miter;stroke-miterlimit:4;stroke-dasharray:none;stroke-opacity:1"
         d="m 2810.6602,-1009.0117 c -102.6205,0 -373.5899,540.74397 -373.5899,785.36717 0,124.511953 59.4611,157.158202 125.3145,157.158202 75.2471,0 143.8227,-57.707162 188.5,-133.441402 6.1649,0.96027 15.6135,1.76757 30.5214,1.76757 107.1161,0 134.6817,-59.06054 134.6817,-59.06054 0,0 -3.2441,28.41213 -3.2441,47.40234 -1e-4,36.23193 14.091,109.35938 104.2558,109.35938 97.7052,0 169.1277,-60.93138 211.9375,-122.69532 -1.1737,9.77956 -1.7475,19.42179 -1.6348,28.85938 0.8583,71.86499 45.6778,96.042967 89.42,96.042967 87.4863,0 176.6328,-133.025387 176.6328,-133.025387 0,0 -1.6563,19.11963 -1.6563,28.70312 0,21.83081 13.2697,84.58594 87.4414,84.58594 80.0394,0 147.1632,-67.03134 196.541,-140.02734 -1.5064,11.28435 -2.3046,21.67292 -2.3046,30.85742 0,38.29861 11.6554,103.04101 90.5507,103.04101 75.8992,0 132.6832,-41.45294 174.3946,-94.96875 -10.477,26.95181 -18.2715,47.38476 -18.2715,52.03516 0,17.35045 40.8171,31.22461 64.791,31.22461 9.0871,0 151.421,-296.21485 273.1191,-296.21485 25.4098,0 45.3711,12.75279 45.3711,59.68946 0,61.96493 -35.1289,104.1845 -35.1289,156.90234 0,39.74225 13.032,84.30664 84.3067,84.30664 137.2607,0 206.082,-193.80874 206.082,-200.19922 0,-12.12113 -12.4902,-16.81054 -12.4902,-16.81054 -3.7697,0 -87.7219,184.22461 -166.2696,184.22461 -35.961,0 -35.5195,-32.34362 -35.5195,-53.86329 0,-60.43569 50.3496,-97.28386 50.3496,-177.19921 0,-66.9893 -35.6595,-110.06641 -86.6465,-110.06641 -137.3499,0 -245.8925,201.77734 -245.8925,201.77734 0,0 30.4433,-96.6322 30.4433,-147.13281 0,-28.11095 -13.3085,-34.34766 -28.1015,-34.34766 -24.3039,0 -60.6934,16.92603 -60.6934,31.0293 0,9.93838 1.3652,11.30356 1.3652,18.14844 0,25.99378 -12.9828,70.18149 -28.7754,115.33789 -42.9474,74.22975 -103.8365,151.63281 -171.0605,151.63281 -59.2604,0 -54.6426,-37.60768 -54.6426,-71.03711 0,-124.62186 123.336,-242.42094 123.336,-296.63086 0,-12.32885 -17.3333,-26.54101 -29.6622,-26.54101 -59.6846,0 -126.3363,134.22505 -155.6796,242.68359 -54.7111,75.27715 -126.397,157.85547 -177.7266,157.85547 -21.8145,0 -38.4375,-25.48096 -38.4375,-50.22852 0,-60.1361 69.3496,-132.94982 69.3496,-165.04101 0,-19.8683 -27.5916,-32.01563 -49.6777,-32.01563 0,0 -164.5093,261.08399 -251.1504,261.08399 -13.7108,0 -30.291,-13.67949 -30.291,-39.76367 0,-131.19784 142.8172,-346.06641 249.4257,-346.06641 37.1844,0 54.6465,40.06587 54.6465,69.54883 0,16.00403 -2.7597,37.53515 -2.7597,37.53515 55.0747,0 55.1972,-24.49603 55.1972,-49.12695 0,-66.85096 -61.9868,-90.52344 -109.291,-90.52344 -122.5411,0 -272.0634,149.23168 -317.1406,290.57618 -35.1899,51.65393 -111.1705,130.02929 -175.7754,130.02929 -84.8879,0 -75.0684,-65.68184 -75.0684,-108.74023 0,-17.66852 5.4177,-119.26443 66.2383,-245.62891 14.2743,0.25402 190.3119,-5.60774 223.5488,-12.14258 4.8609,-0.95573 3.8502,-9.39743 3.8653,-14.35156 0.01,-3.61485 0.8479,-10.71581 -2.7598,-10.48828 -16.2039,1.0213 -87.5053,5.73161 -131.3711,5.77734 -35.3555,0.0368 -77.8281,-2.46484 -77.8281,-2.46484 0,-21.06962 154.5527,-265.06378 154.5527,-301.69141 0,-24.27537 -7.3871,-35.01367 -24.8379,-35.01367 -76.0398,0 -208.9238,330.38114 -208.9238,335.87696 l -51.334,-1.65626 c -5.3543,5.0527 -1.3789,22.35547 -1.3789,22.35547 18.5753,7.07441 41.6738,8.55469 41.6738,8.55469 0,16.32987 -33.4046,75.55074 -56.0253,188.5 -21.8552,41.5718 -61.1711,99.07992 -136.6153,98.25195 -9.7359,-0.10684 -18.8029,-1.60967 -25.7168,-3.15429 25.5376,-50.47088 40.6153,-106.75852 40.6153,-158.51563 0,-61.26871 -17.7296,-115.1121 -74.7364,-115.66406 -67.9434,-0.65786 -103.041,66.56155 -103.041,119.04297 0,70.07808 24.2694,134.26835 87.6406,162.77344 -36.4242,65.29037 -90.8551,99.90234 -127.4531,99.90234 -56.4553,0 -68.7129,-59.32512 -68.7129,-106.28906 0,-72.43239 21.1057,-163.31374 51.918,-255.04688 129.0868,-59.98314 277.1289,-330.75635 277.1289,-452.84179 0,-29.24595 -6.5939,-80.08397 -35.8398,-80.08397 z m -11.3868,100.37889 c 6.0648,-0.0104 5.5052,10.1364 5.6602,16.19922 1.4668,57.44772 -125.9881,295.54313 -218.2266,367.44531 73.0485,-197.06731 181.7651,-383.59151 212.5664,-383.64453 z m -85.0859,459.78125 c 23.1656,0 37.8594,48.59593 37.8594,77.28125 0,51.48598 -10.2846,95.75348 -26.2305,132.33789 -45.5325,-33.30144 -55.7344,-86.94136 -55.7344,-135.85156 0,-29.274 22.0493,-73.76758 44.1055,-73.76758 z"
         transform="scale(0.26458333)" />
      <path
         style="fill:#ffcc00;stroke:#ffcc00;stroke-width:8.90568;stroke-linecap:butt;stroke-linejoin:miter;stroke-miterlimit:4;stroke-dasharray:none;stroke-opacity:1"
         d="m 1059.2543,-177.58903 c -5.1859,0 -12.0786,-4.74612 -11.9756,-9.93097 0.1969,-9.90989 13.3091,-17.55244 22.9289,-17.52523 4.6155,0.0131 10.9533,1.50177 10.9533,8.47053 0,10.83131 -8.5785,18.98567 -21.9066,18.98567 z"
         id="path32011"
         sodipodi:nodetypes="sssss" />
    </g>
  </g>
</svg>
